<svg width="600" height="160" viewBox="0 0 600 160" fill="none" xmlns="http://www.w3.org/2000/svg" role="img" aria-label="pve-optimizer">
  <title>pve-optimizer</title>
  <g transform="translate(12,16) scale(0.25)">
    <g>
        <!-- Regler 1 -->
        <rect x="104" y="76" width="24" height="360" rx="12" fill="#0F2333" fill-opacity="0.15"/>
        <rect x="104" y="168" width="24" height="268" rx="12" fill="#19B6C7"/>
        <rect x="68" y="148" width="96" height="40" rx="14" fill="#0F2333"/>
        <rect x="104" y="162" width="24" height="4" rx="2" fill="#19B6C7" fill-opacity="0.55"/>
        <rect x="104" y="170" width="24" height="4" rx="2" fill="#19B6C7" fill-opacity="0.55"/>
    
        <!-- Regler 2 -->
        <rect x="244" y="76" width="24" height="360" rx="12" fill="#0F2333" fill-opacity="0.15"/>
        <rect x="244" y="300" width="24" height="136" rx="12" fill="#19B6C7"/>
        <rect x="208" y="280" width="96" height="40" rx="14" fill="#0F2333"/>
        <rect x="244" y="294" width="24" height="4" rx="2" fill="#19B6C7" fill-opacity="0.55"/>
        <rect x="244" y="302" width="24" height="4" rx="2" fill="#19B6C7" fill-opacity="0.55"/>
    
        <!-- Regler 3 -->
        <rect x="384" y="76" width="24" height="360" rx="12" fill="#0F2333" fill-opacity="0.15"/>
        <rect x="384" y="232" width="24" height="204" rx="12" fill="#19B6C7"/>
        <rect x="348" y="212" width="96" height="40" rx="14" fill="#0F2333"/>
        <rect x="384" y="226" width="24" height="4" rx="2" fill="#19B6C7" fill-opacity="0.55"/>
        <rect x="384" y="234" width="24" height="4" rx="2" fill="#19B6C7" fill-opacity="0.55"/>
      </g>
  </g>
  <text x="160" y="100" font-family="Avenir Next, Helvetica Neue, Helvetica, Arial, sans-serif" font-size="58" font-weight="700" letter-spacing="-1.5" fill="#0F2333">pve-optimizer</text>
</svg>
